<?xml version="1.0" encoding="UTF-8"?>
<svg id="Capa_2" data-name="Capa 2" xmlns="http://www.w3.org/2000/svg" viewBox="0 0 110.08 117.59">
  <defs>
    <style>
      .cls-1 {
        fill: #fff;
        stroke-width: 0px;
      }
    </style>
  </defs>
  <g id="Capa_1-2" data-name="Capa 1">
    <g id="Ilustración_863" data-name="Ilustración 863">
      <g>
        <g>
          <path class="cls-1" d="m4.15,48.21l.24-.07h0s-.24-.08-.24-.08l-2.31-.79v-.45l3.07,1.14v.36l-3.07,1.14v-.45l2.31-.79Z"/>
          <path class="cls-1" d="m2.05,45.75v.42h-.42v-.42h.42Zm2.86,0v.42h-2.28v-.42h2.28Z"/>
          <path class="cls-1" d="m3.81,44.93c-.37,0-.66-.08-.89-.24-.22-.16-.34-.38-.34-.66,0-.14.03-.27.09-.38.06-.11.14-.2.25-.27l-.3-.05v-.33h2.29c.29,0,.52.09.67.26.16.17.23.42.23.74,0,.11-.02.23-.05.36-.03.13-.07.24-.12.34l-.32-.11c.04-.07.08-.16.1-.27.03-.11.04-.21.04-.31,0-.2-.05-.35-.14-.44-.09-.09-.23-.14-.42-.14h-.26c.1.07.17.16.22.27.05.1.07.22.07.36,0,.28-.1.5-.3.66-.2.16-.47.24-.79.24h-.04Zm.04-.42c.23,0,.41-.05.55-.15.14-.1.21-.24.21-.44,0-.12-.03-.23-.09-.31-.06-.08-.14-.15-.24-.21h-1.05c-.1.05-.17.12-.23.21-.06.09-.09.19-.09.31,0,.2.08.35.25.44.17.1.38.15.64.15h.04Z"/>
          <path class="cls-1" d="m2.05,41.66v.42h-.42v-.42h.42Zm2.86,0v.42h-2.28v-.42h2.28Z"/>
          <path class="cls-1" d="m4.91,40.3v.42H1.62v-.42h3.29Z"/>
          <path class="cls-1" d="m4.91,37.99c-.07.01-.13.02-.18.03-.05,0-.11.01-.16.01.11.08.2.18.27.3.07.12.11.26.11.4,0,.24-.06.42-.18.54-.12.12-.29.19-.5.19s-.39-.09-.51-.26c-.12-.18-.18-.42-.18-.72v-.45h-.23c-.13,0-.24.04-.32.12-.08.08-.12.2-.12.35,0,.13.03.24.1.33.07.08.15.13.25.13v.4h-.01c-.17.01-.32-.07-.45-.23-.14-.17-.21-.38-.21-.64s.07-.47.2-.62c.13-.16.32-.24.57-.24h1.1c.08,0,.16,0,.24-.01.08,0,.15-.02.22-.05v.43Zm-.31.69c0-.15-.04-.29-.12-.41-.08-.12-.17-.2-.26-.24h-.37v.47c0,.17.04.3.13.4.08.1.18.15.3.15.1,0,.18-.03.24-.09s.09-.16.09-.28Z"/>
          <path class="cls-1" d="m3.81,36.84c-.37,0-.66-.08-.89-.23-.22-.16-.34-.38-.34-.66,0-.13.02-.25.07-.36s.12-.19.22-.26h-1.25v-.42h3.29v.34l-.28.05c.11.07.19.17.24.27.05.11.08.23.08.38,0,.28-.1.5-.3.65-.2.16-.47.24-.8.24h-.04Zm.04-.42c.23,0,.41-.05.55-.14.14-.09.21-.24.21-.44,0-.12-.03-.23-.08-.31-.06-.08-.13-.15-.24-.21h-1.06c-.09.05-.17.12-.22.21s-.08.19-.08.31c0,.2.08.35.25.44s.38.14.64.14h.04Z"/>
          <path class="cls-1" d="m4.91,32.62c-.07.01-.13.02-.18.03-.05,0-.11.01-.16.01.11.08.2.18.27.3.07.12.11.26.11.4,0,.24-.06.42-.18.54-.12.12-.29.19-.5.19s-.39-.09-.51-.26c-.12-.18-.18-.42-.18-.72v-.45h-.23c-.13,0-.24.04-.32.12-.08.08-.12.2-.12.35,0,.13.03.24.1.33.07.08.15.13.25.13v.4h-.01c-.17.01-.32-.07-.45-.23-.14-.17-.21-.38-.21-.64s.07-.47.2-.62c.13-.16.32-.24.57-.24h1.1c.08,0,.16,0,.24-.01.08,0,.15-.02.22-.05v.43Zm-.31.69c0-.15-.04-.29-.12-.41-.08-.12-.17-.2-.26-.24h-.37v.47c0,.17.04.3.13.4.08.1.18.15.3.15.1,0,.18-.03.24-.09s.09-.16.09-.28Z"/>
          <path class="cls-1" d="m1.84,29.43l2.49-.98h0s-2.49-.99-2.49-.99v-.53h3.07v.42h-1.21l-1.25-.04h0s2.46,1.01,2.46,1.01v.28l-2.46.99h0s1.24-.03,1.24-.03h1.21v.42H1.84v-.53Z"/>
          <path class="cls-1" d="m2.05,25.52v.42h-.42v-.42h.42Zm2.86,0v.42h-2.28v-.42h2.28Z"/>
          <path class="cls-1" d="m2.63,24.24l.34-.03c-.12-.08-.21-.17-.28-.29-.07-.11-.1-.24-.1-.39,0-.25.07-.44.22-.57.14-.13.37-.2.67-.2h1.44v.42h-1.43c-.2,0-.34.04-.43.12-.08.08-.13.2-.13.36,0,.12.03.23.09.32.06.09.14.17.24.22h1.66v.42h-2.28v-.37Z"/>
          <path class="cls-1" d="m4.96,20.94c0,.32-.11.57-.32.76-.21.19-.49.28-.82.28h-.09c-.32,0-.59-.1-.81-.29-.22-.19-.32-.42-.32-.69,0-.31.09-.54.28-.7.19-.16.43-.24.74-.24h.26v1.48h.01c.22,0,.4-.05.54-.16s.21-.26.21-.45c0-.14-.02-.26-.06-.37-.04-.11-.1-.2-.17-.28l.27-.16c.08.08.15.19.2.32.05.13.08.3.08.48Zm-2.04.06c0,.14.06.26.18.36.12.1.26.16.44.18h.01v-1.06h-.05c-.16,0-.3.04-.41.13s-.16.22-.16.39Z"/>
          <path class="cls-1" d="m3.81,19.43c-.37,0-.66-.08-.89-.23-.22-.16-.34-.38-.34-.66,0-.13.02-.25.07-.36s.12-.19.22-.26h-1.25v-.42h3.29v.34l-.28.05c.11.07.19.17.24.27.05.11.08.23.08.38,0,.28-.1.5-.3.65-.2.16-.47.24-.8.24h-.04Zm.04-.42c.23,0,.41-.05.55-.14.14-.09.21-.24.21-.44,0-.12-.03-.23-.08-.31-.06-.08-.13-.15-.24-.21h-1.06c-.09.05-.17.12-.22.21s-.08.19-.08.31c0,.2.08.35.25.44s.38.14.64.14h.04Z"/>
          <path class="cls-1" d="m4.57,15.16c.12.07.22.16.28.28s.1.24.1.39c0,.25-.08.44-.24.58s-.41.21-.74.21h-1.34v-.42h1.35c.24,0,.41-.04.5-.11s.14-.18.14-.33-.03-.27-.09-.37c-.06-.1-.14-.17-.25-.22h-1.64v-.42h2.28v.37l-.34.03Z"/>
          <path class="cls-1" d="m4.63,12.96c0-.14-.04-.26-.13-.36-.08-.1-.19-.16-.31-.16v-.37h.01c.2-.01.37.08.52.26s.23.39.23.64c0,.33-.11.59-.32.76-.22.18-.49.26-.82.26h-.09c-.32,0-.6-.09-.81-.26-.22-.18-.33-.43-.33-.76,0-.27.08-.48.24-.65.16-.17.35-.25.58-.25h.01v.38c-.14,0-.26.05-.36.15s-.15.22-.15.37c0,.22.08.37.23.47s.35.14.58.14h.09c.23,0,.43-.05.58-.14s.23-.25.23-.47Z"/>
          <path class="cls-1" d="m4.91,9.92c-.07.01-.13.02-.18.03-.05,0-.11.01-.16.01.11.08.2.18.27.3.07.12.11.26.11.4,0,.24-.06.42-.18.54-.12.12-.29.19-.5.19s-.39-.09-.51-.26c-.12-.18-.18-.42-.18-.72v-.45h-.23c-.13,0-.24.04-.32.12-.08.08-.12.2-.12.35,0,.13.03.24.1.33.07.08.15.13.25.13v.4h-.01c-.17.01-.32-.07-.45-.23-.14-.17-.21-.38-.21-.64s.07-.47.2-.62c.13-.16.32-.24.57-.24h1.1c.08,0,.16,0,.24-.01.08,0,.15-.02.22-.05v.43Zm-.31.69c0-.15-.04-.29-.12-.41-.08-.12-.17-.2-.26-.24h-.37v.47c0,.17.04.3.13.4.08.1.18.15.3.15.1,0,.18-.03.24-.09s.09-.16.09-.28Z"/>
          <path class="cls-1" d="m4.63,7.75c0-.14-.04-.26-.13-.36-.08-.1-.19-.16-.31-.16v-.37h.01c.2-.01.37.08.52.26s.23.39.23.64c0,.33-.11.59-.32.76-.22.18-.49.26-.82.26h-.09c-.32,0-.6-.09-.81-.26-.22-.18-.33-.43-.33-.76,0-.27.08-.48.24-.65.16-.17.35-.25.58-.25h.01v.38c-.14,0-.26.05-.36.15s-.15.22-.15.37c0,.22.08.37.23.47s.35.14.58.14h.09c.23,0,.43-.05.58-.14s.23-.25.23-.47Z"/>
          <path class="cls-1" d="m2.05,5.67v.42h-.42v-.42h.42Zm2.86,0v.42h-2.28v-.42h2.28Z"/>
          <path class="cls-1" d="m1.75,3.63v-.48h.01s.55.56.55.56v.31l-.56-.39Zm2,1.22c-.34,0-.61-.09-.83-.27s-.33-.43-.33-.74.11-.57.33-.75.5-.27.83-.27h.05c.34,0,.62.09.83.27.22.18.32.43.32.75s-.11.56-.33.75c-.22.18-.5.27-.83.27h-.05Zm.05-.42c.24,0,.44-.05.6-.15s.24-.25.24-.45-.08-.35-.24-.45c-.16-.1-.36-.15-.6-.15h-.05c-.24,0-.44.05-.6.15-.16.1-.24.25-.24.45s.08.35.24.45c.16.1.36.15.6.15h.05Z"/>
          <path class="cls-1" d="m2.63,1.66l.34-.03c-.12-.08-.21-.17-.28-.29-.07-.11-.1-.24-.1-.39,0-.25.07-.44.22-.57.14-.13.37-.2.67-.2h1.44v.42h-1.43c-.2,0-.34.04-.43.12-.08.08-.13.2-.13.36,0,.12.03.23.09.32.06.09.14.17.24.22h1.66v.42h-2.28v-.37Z"/>
          <rect class="cls-1" width=".1" height="49.45"/>
          <rect class="cls-1" x="6.39" width=".1" height="49.45"/>
        </g>
        <g>
          <g>
            <g>
              <g>
                <path class="cls-1" d="m96.27,99.95l2.24-2.25c.17-.17.28-.32.35-.43.07-.12.11-.26.11-.41,0-.19-.05-.35-.17-.48-.11-.13-.25-.2-.4-.2-.13,0-.26.05-.37.14-.08.07-.21.22-.37.47l-1.46,2.27-.66,1.04h.6l.13-.14Z"/>
                <path class="cls-1" d="m67.47,101.98h.22c.32,0,.55.06.68.19.13.13.2.34.2.64,0,.19-.05.51-.16.98-.1.44-.24.91-.41,1.43l-1.15,3.28-2.46-6.52h1.26v-.61h-4.68v.61h.45c.43,0,.75.09.97.26.23.18.43.5.62.98l3.03,7.46-.42.96c-.62,1.42-.94,2.03-1.46,2.75-.61.85-1.19,1.28-1.73,1.28-.26,0-.48-.06-.65-.17-.17-.12-.28-.29-.34-.51v-.03h-.66l.15,2.65h.05c.11,0,.22-.02.33-.04,1.05-.17,2.08-.91,3.06-2.19,1.09-1.44,1.64-2.73,2.64-5.48l2.88-7.9h1.19v-.61h-3.59v.61Z"/>
                <path class="cls-1" d="m61.7,106.71c0-.84-.16-1.61-.47-2.3-.26-.57-.64-1.09-1.12-1.55-1.06-1.01-2.43-1.52-4.1-1.52-1.63,0-2.99.52-4.05,1.56-1.06,1.03-1.6,2.37-1.6,3.98s.55,2.84,1.62,3.85c1.06,1.01,2.43,1.52,4.06,1.53h.05c1.63,0,2.99-.52,4.04-1.56.48-.47.85-1,1.11-1.59.32-.71.47-1.52.47-2.41Zm-2.41,3.78c-.6.64-1.41.96-2.42.96-.29,0-.57-.03-.84-.09-.97-.2-1.86-.77-2.65-1.7-1.01-1.18-1.53-2.54-1.53-4.02,0-1.06.31-1.92.91-2.55.6-.63,1.43-.95,2.45-.95.27,0,.53.03.8.08.96.2,1.86.77,2.65,1.7,1.01,1.18,1.53,2.53,1.53,4,0,1.07-.3,1.93-.9,2.57Z"/>
                <path class="cls-1" d="m90.73,109.93c-.48.42-.99.74-1.52.94-.53.21-1.09.32-1.65.32-1.22,0-2.31-.53-3.25-1.56-.94-1.04-1.42-2.24-1.42-3.58,0-1.15.38-2.1,1.12-2.81.75-.72,1.72-1.07,2.95-1.07.46,0,.9.08,1.34.22.43.14.86.37,1.27.63v2.49h.61v-4.14h-.61v.27c-.25-.09-.53-.16-.82-.21-.31-.05-.63-.08-.97-.08-1.8,0-3.32.55-4.51,1.64-1.2,1.1-1.81,2.49-1.81,4.13,0,1.5.47,2.75,1.41,3.71.93.96,2.15,1.45,3.62,1.45.87,0,1.7-.16,2.46-.46.77-.31,1.48-.78,2.14-1.39l.03-.03-.36-.49-.04.03Z"/>
                <path class="cls-1" d="m45.24,101.91c1.42-.87,2.14-2.06,2.14-3.55,0-.77-.19-1.47-.55-2.08-.37-.61-.82-1.08-1.34-1.39-.51-.32-1.07-.54-1.64-.65-.31-.07-.74-.11-1.3-.14-.44-.02-.97-.03-1.59-.03h-4.68v.27h.05c.36,0,.63.05.82.16.19.11.31.27.34.49.03.24.05.69.05,1.31v13.44c0,1.12-.12,1.53-.22,1.67-.14.21-.48.32-1.02.32h-.04v.26h6.94c1.3,0,2.32-.15,3.05-.46.73-.3,1.38-.92,1.95-1.85.56-.92.85-1.96.85-3.09,0-1.2-.33-2.24-.99-3.1-.64-.82-1.58-1.35-2.81-1.59Zm-5.54-7.38h.43c.98,0,1.79.08,2.42.23.27.06.51.14.71.23.7.3,1.24.75,1.6,1.34.37.59.55,1.34.55,2.23,0,.82-.24,1.65-.71,2.48-.39.68-1.11,1.08-2.15,1.2-.23.03-.47.04-.73.04h-2.12v-7.75Zm6.46,15.96c-.56.63-1.54.95-2.91.95-.24,0-.47,0-.69-.02-.56-.03-1.02-.1-1.36-.21-.47-.16-.81-.36-1.02-.61-.21-.25-.34-.5-.4-.72-.06-.24-.09-.76-.09-1.51v-5.61h1.35c.58,0,1.08,0,1.51.03.9.04,1.57.12,2,.23.63.17,1.2.67,1.69,1.48.51.82.76,1.88.76,3.18s-.29,2.19-.85,2.82Z"/>
                <path class="cls-1" d="m19.66,110.86c-.15-.22-.23-.59-.23-1.12v-14.72s.54-.52.54-.52l-.4-.44-3.09,2.91.4.44.76-.68v5.6c-.42-.39-.9-.68-1.46-.87-.58-.2-1.26-.3-2.02-.3h-.21c-1.51.05-2.8.58-3.84,1.6-1.08,1.06-1.63,2.41-1.63,4.02,0,1.51.54,2.78,1.61,3.79,1.03.98,2.33,1.49,3.86,1.52.05,0,.11,0,.17,0,.63,0,1.25-.1,1.84-.31.57-.2,1.13-.5,1.68-.89v.93h3.19v-.61h-.44c-.34,0-.57-.1-.72-.32Zm-3.44.05c-.47.16-.97.24-1.47.24-.27,0-.54-.02-.8-.07-.95-.16-1.76-.64-2.43-1.41-.85-.99-1.27-2.27-1.27-3.8,0-1.21.37-2.21,1.09-2.97.68-.71,1.55-1.1,2.6-1.14.07,0,.14,0,.21,0,.73,0,1.42.18,2.05.54.63.36,1.12.83,1.43,1.39l.02,6.49c-.47.33-.96.58-1.44.74Z"/>
                <path class="cls-1" d="m22.46,105.56h10c-.31-2.41-2.64-4.38-5.18-4.41-3.74-.04-5.71,2.28-6.16,4.35h0s0,.02,0,.02c0,.01,0,.02,0,.04h0c-.07.31-.11.64-.12.97,0,.09,0,.19,0,.29s0,.2,0,.29c.06,1.42.58,2.6,1.54,3.51.97.92,2.24,1.41,3.76,1.46.09,0,.18,0,.27,0,1.15,0,2.19-.3,3.11-.89.92-.59,1.71-1.47,2.34-2.61l.02-.04-.55-.29-.02.04c-.51.88-1.13,1.55-1.85,2-.73.45-1.55.67-2.45.67-.3,0-.59-.03-.86-.08-.93-.18-1.75-.69-2.45-1.5-.92-1.05-1.39-2.32-1.39-3.78v-.05h0Zm3.87-3.53c1.79,0,3.45,1.27,3.93,2.99h-7.76c.23-1.69,1.43-2.99,3.82-2.99Z"/>
                <path class="cls-1" d="m79.9,111.09c-.15-.22-.23-.63-.23-1.15v-4.95c0-1.05-.31-2.07-.93-2.68-.47-.47-1.07-.78-1.79-.89h0s-.06,0-.09-.01c0,0-.02,0-.02,0-.33-.04-.69-.06-1.06-.06-.25,0-.48.01-.7.03-.12,0-.24.02-.36.04-.03,0-.06,0-.09.02h-.01c-.29.05-.58.14-.86.26-.47.21-.92.55-1.36.95v-1.27h-.54v3.34h.67c.14-.8.34-1.26.73-1.76.19-.24.39-.43.61-.58.39-.23.99-.36,1.64-.36.88,0,1.64.25,1.95.64.25.33.37.8.37,1.39v1.62c-.61-.39-1.47-.65-2.64-.62-1.28.03-3.98.61-4.1,3.77-.05,1.27.51,3.72,4.27,3.45,1.05-.08,1.87-.56,2.48-1.18v.95h3.2v-.61h-.42c-.34,0-.57-.1-.72-.32Zm-2.05-1.08c-.46,1.13-1.44,1.48-2.55,1.44-1.76-.06-2.6-1.68-2.72-2.92-.17-1.75.62-2.67,2.37-2.83.89-.09,2.16.35,2.9,1.29v2.1s0,.91,0,.91Z"/>
                <path class="cls-1" d="m101.18,111.41c-.34,0-.57-.1-.72-.32-.15-.22-.23-.63-.23-1.15v-4.95c0-1.05-.31-2.07-.93-2.68-.47-.47-1.07-.78-1.8-.89h0s-.06,0-.09-.01c0,0-.01,0-.02,0-.33-.04-.69-.06-1.06-.06-.25,0-.48.01-.7.03-.12,0-.24.02-.36.04-.03,0-.06,0-.09.02h0c-.29.05-.58.14-.86.26-.47.21-.92.55-1.36.95v-1.27h-.54v3.34h.68c.14-.8.34-1.26.73-1.76.19-.24.39-.43.61-.58.39-.23.99-.36,1.64-.36.88,0,1.63.25,1.95.64.25.33.37.8.37,1.39v1.62c-.61-.39-1.47-.65-2.64-.62-1.27.03-3.98.61-4.11,3.77-.05,1.27.51,3.72,4.27,3.45,1.05-.08,1.87-.56,2.48-1.18v.95h3.2v-.61h-.42Zm-2.77-1.4c-.46,1.13-1.44,1.48-2.55,1.44-1.75-.06-2.59-1.68-2.72-2.92-.17-1.75.62-2.67,2.37-2.83.89-.09,2.15.35,2.9,1.29v2.1s0,.91,0,.91Z"/>
              </g>
              <g>
                <path class="cls-1" d="m59.74,77.48c-.15-.09-.3-.15-.46-.2-.18-.05-.37-.08-.57-.08-.4,0-.78.1-1.17.32-.36.2-.76.51-1.18.93v-.65s.55-.53.55-.53l-.4-.44-3.1,2.91.4.42.73-.68v7.78h-.92v.61h4.12v-.61h-.42c-.34,0-.57-.1-.72-.32-.15-.22-.23-.6-.23-1.13v-6.46c.25-.39.51-.68.82-.89.29-.2.61-.29.95-.29.45,0,.84.17,1.14.51.3.35.46.8.46,1.33v1.07h.59v-3.77h-.59v.16Z"/>
                <path class="cls-1" d="m11.93,70.38h.22c.39,0,.66.09.84.28.18.19.27.81.27,1.86v11.82c-1.47,1.72-3.19,2.91-5.1,2.91-1.21,0-2.31-.44-3.26-1.3-.94-.87-1.43-2.44-1.43-4.47v-9.78c0-.57.1-.94.29-1.09.2-.15.55-.23,1.04-.23h.05v-.27H0v.27h.04c.54,0,.91.08,1.05.24.1.11.22.42.22,1.2v10.67c0,1.76.53,3.26,1.57,4.26,1.04,1,2.47,1.56,4.25,1.56,2.35,0,4.41-1.24,6.12-3.1v2.68h3.47v-.26h-.04c-.42,0-.7-.06-.87-.17-.17-.11-.27-.25-.33-.42-.05-.17-.08-.52-.08-1.12v-14.38c0-.44.07-.73.21-.89.14-.16.5-.25,1.07-.28h.04v-.27h-4.79v.27Z"/>
                <path class="cls-1" d="m71.69,74.47c.27,0,.5-.1.7-.3.2-.2.3-.44.3-.71s-.1-.51-.29-.7c-.19-.19-.43-.29-.71-.29s-.5.1-.71.3c-.2.2-.3.43-.3.69s.1.5.31.7c.21.21.44.31.7.31Z"/>
                <path class="cls-1" d="m42.11,77.46v-.04h-3.25v.61h.67c.16,0,.29.05.41.14.11.09.17.2.17.33,0,.1-.03.25-.08.43l-.02.05s-.02.05-.02.07l-2,6.7-2.84-7.73h1.15v-.61h-4.11v.61h.04c.13.02.26.04.38.07.21.06.4.15.56.27.24.19.44.48.6.89l3.31,8.6h.84l3.28-9.84h.91v-.57Z"/>
                <path class="cls-1" d="m30.28,74.47c.27,0,.5-.1.7-.3.2-.2.3-.44.3-.71s-.09-.51-.29-.7c-.19-.2-.43-.29-.71-.29s-.51.1-.71.3c-.2.2-.3.43-.3.69s.1.5.31.7c.2.21.44.31.7.31Z"/>
                <path class="cls-1" d="m72.91,86.93c-.15-.22-.23-.6-.23-1.13v-8.01s.54-.53.54-.53l-.4-.44-3.1,2.91.4.42.73-.68v7.78h-.92v.61h4.12v-.61h-.42c-.34,0-.57-.1-.72-.32Z"/>
                <path class="cls-1" d="m31.5,86.93c-.15-.22-.23-.6-.23-1.13v-8.01s.54-.53.54-.53l-.4-.44-3.1,2.91.4.42.74-.68v7.78h-.93v.61h4.12v-.61h-.44c-.33,0-.56-.11-.7-.32Z"/>
                <path class="cls-1" d="m108.91,86.93c-.15-.22-.23-.6-.23-1.13l-.02-14.74.55-.53-.4-.44-3.1,2.91.4.45.76-.68v5.61c-.42-.39-.9-.68-1.46-.87-.58-.2-1.27-.3-2.03-.3-.07,0-.14,0-.21,0-1.51.04-2.8.58-3.84,1.6-1.08,1.06-1.63,2.42-1.63,4.02,0,1.51.54,2.79,1.61,3.8,1.03.98,2.33,1.49,3.87,1.52h.16c.63,0,1.26-.1,1.84-.31.57-.2,1.13-.49,1.69-.89v.93h3.19v-.61h-.45c-.34,0-.57-.1-.72-.32Zm-3.45.05c-.48.16-.97.24-1.47.24-.28,0-.55-.02-.8-.07-.95-.16-1.76-.64-2.43-1.42-.85-.99-1.28-2.27-1.28-3.81,0-1.21.37-2.21,1.09-2.98.68-.71,1.55-1.1,2.61-1.14.07,0,.13,0,.2,0,.73,0,1.42.18,2.05.54.63.36,1.12.84,1.44,1.39l.02,6.5c-.48.34-.96.58-1.44.74Z"/>
                <path class="cls-1" d="m85.69,86.93c-.15-.22-.23-.6-.23-1.13v-14.74s.54-.53.54-.53l-.4-.44-3.1,2.91.4.45.76-.68v5.61c-.42-.39-.9-.68-1.46-.87-.59-.2-1.27-.3-2.03-.3-.07,0-.14,0-.21,0-1.51.04-2.81.58-3.84,1.6-1.08,1.06-1.63,2.42-1.63,4.02,0,1.51.54,2.79,1.61,3.8,1.03.98,2.33,1.49,3.86,1.52h.17c.63,0,1.25-.1,1.84-.31.57-.2,1.13-.49,1.69-.89v.93h3.2v-.61h-.45c-.34,0-.57-.1-.72-.32Zm-3.45.05c-.48.16-.97.24-1.47.24-.28,0-.54-.02-.8-.07-.95-.16-1.76-.64-2.43-1.42-.85-.99-1.28-2.27-1.28-3.81,0-1.21.37-2.21,1.09-2.98.68-.71,1.56-1.1,2.61-1.14.07,0,.14,0,.21,0,.73,0,1.42.18,2.05.54.64.36,1.12.84,1.44,1.39l.02,6.5c-.47.33-.96.58-1.44.74Z"/>
                <path class="cls-1" d="m27.01,86.93c-.15-.22-.22-.6-.22-1.13v-5.93c0-.86-.25-1.33-.68-1.86-.52-.64-1.38-.94-2.55-.88-1,.05-1.83.22-3.35,1.46v-.81s.54-.53.54-.53l-.4-.44-3.1,2.91.4.42.74-.68v7.78h-.92v.61h4.12v-.61h-.42c-.34,0-.58-.1-.72-.32-.15-.22-.23-.6-.23-1.13v-6c0-.9,1.64-1.66,2.94-1.71.02,0,.04,0,.06,0,.96,0,1.74.78,1.74,1.74,0,.01,0,.02,0,.03,0,0,0,.01,0,.02v7.38h-.91v.61h4.11v-.61h-.41c-.35,0-.58-.1-.73-.32Z"/>
                <path class="cls-1" d="m43.08,81.6h10c-.31-2.41-2.64-4.38-5.18-4.41-3.74-.04-5.71,2.28-6.16,4.35h0s0,.02,0,.02c0,.01,0,.03,0,.04h0c-.07.31-.11.64-.13.97,0,.09,0,.19,0,.29s0,.2,0,.29c.06,1.42.58,2.6,1.54,3.51.97.92,2.24,1.41,3.77,1.46.09,0,.18,0,.27,0,1.15,0,2.19-.3,3.11-.89.92-.59,1.71-1.47,2.34-2.61l.02-.04-.55-.29-.02.04c-.51.88-1.13,1.55-1.85,2-.73.45-1.55.67-2.45.67-.3,0-.58-.03-.85-.08-.93-.18-1.75-.69-2.46-1.5-.92-1.05-1.39-2.32-1.39-3.78,0-.02,0-.03,0-.05h0Zm3.87-3.53c1.79,0,3.45,1.27,3.93,2.99h-7.76c.24-1.69,1.43-2.99,3.83-2.99Z"/>
                <path class="cls-1" d="m62.56,86.61s-.02-.03-.04-.06c0,.01.02.03.02.04,0,0,0,.01.02.02Z"/>
                <path class="cls-1" d="m68.5,83.19s-.18-.21-.36-.34c-.18-.13-.37-.22-.37-.22l-3.59-1.62h0c-.13-.07-.25-.14-.36-.21-.22-.15-.38-.33-.49-.54-.11-.21-.16-.47-.16-.79,0-.4.3-.95.63-1.24.33-.29.78-.39,1.35-.43,1.8-.11,2.16,1.46,2.16,1.88v1.02h.61v-3.32h-.61v.41c-.27-.15-.61-.33-1.04-.44-.42-.11-.84-.16-1.24-.16-1.06,0-1.9.29-2.53.88-.63.59-.94,1.3-.94,2.15,0,1.56,1.57,2.23,1.57,2.23l2.95,1.33c.32.13.59.27.81.43.22.16.39.35.51.56.11.21.17.47.17.76,0,.57-.18,1-.55,1.3-.18.15-.77.59-2.07.58-.72,0-1.45-.17-2.08-.53-.12-.07-.23-.17-.32-.29,0,.01,0,0-.02-.02-.15-.21-.08-.12-.02-.04-.23-.34-.34-.75-.34-1.24v-.83h-.61v3.38h.61v-.39c.08.04.16.09.24.13.69.35,1.45.51,2.21.53.23,0,.47,0,.7-.02h.01c1.05-.03,1.91-.34,2.59-.91.72-.61,1.07-1.39,1.07-2.35,0-.48-.08-.88-.23-1.21-.08-.16-.17-.31-.28-.46Z"/>
                <path class="cls-1" d="m96.14,87.13c-.15-.22-.23-.63-.23-1.15v-4.95c0-1.05-.31-2.07-.93-2.68-.47-.47-1.07-.78-1.8-.89h0s-.06,0-.09-.01c0,0-.02,0-.02,0-.33-.04-.69-.06-1.06-.06-.25,0-.48.01-.71.03-.12,0-.24.02-.36.04-.03,0-.06,0-.09.02,0,0,0,0-.01,0h0c-.29.05-.58.14-.86.26-.47.21-.92.55-1.36.95v-1.27h-.54v3.34h.68c.14-.8.34-1.26.73-1.76.18-.24.39-.43.61-.58.39-.23.99-.36,1.64-.36.88,0,1.63.25,1.95.64.25.33.37.8.37,1.39v1.62c-.61-.39-1.47-.65-2.64-.62-1.27.03-3.98.61-4.1,3.77-.05,1.27.51,3.72,4.27,3.45,1.05-.08,1.87-.56,2.48-1.18v.95h3.2v-.61h-.42c-.34,0-.57-.1-.72-.32Zm-2.05-1.08c-.46,1.13-1.44,1.48-2.55,1.44-1.75-.06-2.59-1.68-2.72-2.92-.17-1.75.62-2.66,2.37-2.83.89-.09,2.15.35,2.9,1.29v2.1s0,.91,0,.91Z"/>
              </g>
            </g>
            <g>
              <path class="cls-1" d="m93.78,33.83c-3.05-2.74-7.6-4.78-13.85-5.67,3.71-1.01,6.51-2.62,8.52-4.65,6.32-6.39,4.92-15.48-3.09-19.69C80.42,1.22,73.25,0,65,0H11.44v1.24h52.71c2.37.11,4.44.38,6.15.79,1.01.23,1.91.53,2.68.87,2.65,1.13,4.68,2.83,6.04,5.04,1.39,2.22,2.09,5.04,2.09,8.37,0,3.08-.91,6.22-2.69,9.34-1.05,1.84-2.78,3.14-5.15,3.89v.02c19.79-.19,20.13,31.48-.05,32.97-3.22.24-11.14-.28-12.85-.85-1.71-.56-2.97-1.32-3.74-2.24-.01-.01-.02-.03-.03-.04v4.83h16.44c8.93,0,15.68-2.61,19.99-6.53,3.82-3.46,5.74-7.93,5.62-12.52-.11-4.25-1.4-8.26-4.86-11.36Z"/>
              <g>
                <path class="cls-1" d="m18.94,11.51s-.06,0-.09,0c-.54,0-1.08.37-1.36.95-.3.61-.3,1.38,0,2,.28.58.82.96,1.37.96h.03s.08,0,.08,0h0v-.08s.06,0,.06,0v.08s.08,0,.08,0h0c.52-.11.9-.54,1.09-.92.26-.53.31-1.18.11-1.76-.18-.52-.65-1.15-1.38-1.21Zm.64,2.1c-.07.34-.39.6-.75.6-.05,0-.09,0-.14-.01-.2-.04-.37-.16-.49-.34-.11-.18-.15-.39-.1-.59.08-.33.4-.57.74-.57.06,0,.12,0,.17.02.38.08.64.49.56.89Z"/>
                <path class="cls-1" d="m15.54,9.4c.07-.08.17-.14.25-.21.07-.05.14-.1.2-.15.17-.15.35-.29.57-.44.36-.24.73-.44,1.12-.62l.2-.09-.22-.06c-.39-.11-.84-.16-1.4-.18-.24,0-.48,0-.74,0h-.08v1.79s.02.03.02.03l.06-.07Z"/>
                <path class="cls-1" d="m63.79,4.27c.46-.5,1.58-.8,3.38-.89v-.56h-14.44v.56h.52c1.22,0,2.12.29,2.69.91.58.61.85,2.55.85,5.81v37.2c-4.6,5.35-9.87,8.03-15.82,8.03-3.79,0-7.15-1.35-10.11-4.05-2.96-2.7-4.43-7.21-4.43-13.53V7.56c0-1.82.31-2.97.94-3.45.63-.49,1.73-.73,3.27-.73v-.56H11.44v.56c1.75,0,2.86.27,3.33.79.38.42.6,1.37.67,2.76h.02v.05s.02,0,.03,0h.13c.45,0,.86.02,1.23.04.44.03.84.07,1.22.13.21.03.42.07.63.12.05.01.1.02.14.04.1.03.21.06.31.06.02,0,.04,0,.06,0,.1-.01.2-.05.29-.08.07-.02.13-.05.19-.06.19-.05.38-.1.56-.14.41-.09.81-.17,1.21-.22.48-.06.97-.1,1.44-.1.35,0,.69.02,1.03.05l-.06.28c-.13.67-.26,1.35-.5,2-.15.39-.31.73-.51,1.02-.01.02-.03.04-.05.06-.07.09-.1.14-.1.19h0s0,.02,0,.02c.04.09.08.18.11.27.07.18.14.36.2.54.25.74.43,1.53.55,2.36.23,1.64.29,2.97-.05,4.5-.1-.2-.43-.57-1.11-.8.02-.09.31-1.18.38-1.76.2-1.75.06-3.26-.41-4.47-.08-.19-.16-.37-.24-.53-.05-.08-.09-.17-.14-.24,0,0-.01-.02-.02-.03-.03-.04-.03-.05,0-.08.27-.25.5-.54.74-.88.43-.65.73-1.33.89-2.01l.02-.09h-.09c-.07,0-.15,0-.23,0h-.02c-1.38,0-2.88.4-4.45,1.16-.81.39-1.42.77-1.93,1.19-.5.41-1.12.98-1.45,1.72,0-.02-.01-.03-.02-.05v6.34s.05.05.05.05l.06-.05c.15-.14.35-.23.52-.3.25-.11.47-.18.68-.23.14-.03.28-.06.42-.07.01,0,.03,0,.04,0,.03,0,.06-.01.09-.01.04,0,.06.01.06.04v.02c.01.08.01.09-.08.11-.1.02-.21.06-.3.1-.45.2-.84.51-1.08.86-.14.2-.21.41-.23.62,0,.08-.02.09-.06.09h-.06s-.09,0-.09,0v17.88s.04.02.04.02l.04-.03c.13-.09.25-.16.38-.22.26-.12.58-.26.9-.39.37-.14.76-.25,1.17-.33.06-.01.67-.12.91-.12.06,0,.08,0,.09.01v.05q.01.08-.07.1l-.43.07c-.12.02-.24.04-.36.06-.79.16-1.39.45-1.79.86-.21.22-.38.49-.48.78-.01.04-.09.37-.1.49l-.03.03h-.14s-.07,0-.11,0h0v1.41s.08,0,.13-.01c.15-.02.29-.05.44-.07.29-.05.59-.1.89-.16.44-.08.88-.18,1.3-.27l.41-.09c.52-.11,1.05-.2,1.56-.28l.14-.02c.49-.08,1.02-.18,1.51-.37.75-.28,1.27-.71,1.55-1.27.28-.57.3-1.3.06-1.9-.1-.26-.29-.6-.58-.75-.06-.03-.13-.05-.2-.05-.25,0-.48.21-.66.37l-.06.05c-.15.14-.3.27-.45.39l-.09.07.1.06c.06.03.11.06.15.1.45.35.73.97.69,1.54-.01.19-.06.52-.29.68-.05.03-.14.06-.23.06-.11,0-.19-.04-.22-.1h0s0-.01,0-.01c0,0,0,0,0-.03.12-.72-.03-1.29-.45-1.7l-.02-.02c-.05-.05-.11-.11-.15-.17l-.05-.06-.06.04c-.16.1-.33.2-.55.33l-.14.08.15.06c.41.17.63.64.71.84.11.28.15.54.11.78-.02.14-.09.4-.27.51-.05.03-.13.05-.2.05-.1,0-.17-.03-.2-.08-.03-.05,0-.16,0-.24,0-.04.01-.08.02-.1.01-.15,0-.29-.01-.43-.04-.27-.15-.52-.32-.7-.03-.03-.07-.07-.11-.1-.09-.09-.19-.17-.23-.28l-.03-.09-.58.33.1.07c.22.16.33.44.38.64.05.2.15.69-.13.9-.04.03-.08.04-.13.04-.09,0-.16-.07-.17-.16,0-.06,0-.12.01-.18,0-.07.02-.14.01-.21-.01-.21-.06-.39-.16-.54-.03-.04-.06-.08-.1-.13-.05-.05-.1-.11-.13-.18l-.04-.08-.18.11c-.11.06-.21.12-.32.18-.01,0-.02,0-.03,0-.01,0-.02,0-.04-.04v-.02s-.03-.04-.03-.06c0-.02.03-.04.07-.06.02,0,.03-.02.05-.03l1.14-.81.23-.16c.29-.2.6-.42.88-.64.16-.13.32-.27.5-.44.03-.03.06-.05.09-.08.11-.09.22-.19.28-.31.06-.13.1-.27.14-.41.01-.05.03-.11.05-.16.05-.16.1-.35.15-.56.1-.45.19-.85.25-1.21.17-.96.23-1.73.18-2.45-.06-.79-.24-1.58-.54-2.28-.29-.68-.68-1.32-1.06-1.93l-.02-.02c-.84-1.36-1.59-2.72-1.54-4.26.02-.77.24-1.52.63-2.21l.02-.03c.17-.3.35-.61.62-.82.21-.17.56-.38.96-.41.05,0,.1,0,.14,0,.69,0,1.28.47,1.65.87.45.47.8,1.07,1.05,1.76.27.74.37,1.52.44,2.19.07.66.12,1.37.13,2.16,0,.07,0,.16,0,.31,0,.12,0,.19,0,.23,0,.59-.03,1.12-.08,1.62-.05.52-.15,1.05-.24,1.55l-.11.59s0,.05,0,.07c0,.05-.01.11-.03.16,0,0-.03,0-.03,0-.02,0-.05,0-.07,0h-.02s-.02,0-.03-.01c-.02-.03,0-.1,0-.14,0-.02,0-.03,0-.03.03-.42.06-.84.09-1.26.06-.98.08-1.78.05-2.51-.08-1.93-.35-3.41-.86-4.66-.25-.62-.57-1.23-1.15-1.46-.14-.05-.28-.08-.43-.08-.16,0-.26.06-.4.17-.24.19-.44.48-.6.88-.25.6-.32,1.37-.21,2.29.1.78.31,1.56.63,2.32.12.29.27.58.41.85.21.41.43.83.57,1.28.23.69.34,1.49.36,2.35.01.75-.05,1.53-.2,2.41-.05.26-.09.53-.14.79l-.07.42c-.06.33-.14.66-.2.93l-.06.23.18-.15c.14-.11.28-.18.43-.19.03,0,.05,0,.07,0,.18,0,.36.08.54.23.38.33.7.78.89,1.25.37.92.21,1.99-.42,2.79-.96,1.23-2.62,1.6-3.96,1.78-.75.1-1.59.22-2.41.46-.32.09-.73.22-1.13.4-.11.05-.21.11-.31.17-.07.04-.14.08-.2.12-.02,0-.04.02-.06.03-.06.02-.13.05-.17.09v.16c0,23.61,29.37,21.72,41.31,8.43v7.51s.59,2.65,5.08,2.65h5.3v-.53c-1.29,0-2.2-.18-2.74-.54-.53-.36-.89-.8-1.07-1.35-.18-.55-.25-3.41-.25-5.18V7.09c0-1.38.22-2.33.68-2.82ZM21.28,13.58c-.08,1.21-1.26,2.02-2.31,2.02-.04,0-.08,0-.13,0-.79-.05-1.41-.3-1.84-.76-.47-.49-.67-1.16-.54-1.79.25-1.11,1.43-1.72,2.41-1.72.04,0,.09,0,.13,0,.04,0,.06,0,.06,0,1.13.09,2.3.98,2.22,2.24Z"/>
              </g>
            </g>
          </g>
          <g>
            <path class="cls-1" d="m102.31,103.39c-1.13,0-2.06-.92-2.06-2.06s.92-2.06,2.06-2.06,2.06.92,2.06,2.06-.92,2.06-2.06,2.06Zm0-3.83c-.98,0-1.78.8-1.78,1.78s.8,1.78,1.78,1.78,1.78-.8,1.78-1.78-.8-1.78-1.78-1.78Z"/>
            <path class="cls-1" d="m101.62,100.13c.16-.03.38-.05.59-.05.33,0,.54.06.69.19.12.11.19.27.19.46,0,.31-.2.52-.45.6h0c.18.07.29.24.35.49.08.33.13.56.18.65h-.32c-.04-.07-.09-.27-.16-.57-.07-.33-.2-.45-.48-.46h-.29v1.03h-.31v-2.35Zm.31,1.09h.31c.33,0,.54-.18.54-.45,0-.31-.22-.44-.55-.44-.15,0-.25.01-.3.02v.87Z"/>
          </g>
        </g>
      </g>
    </g>
  </g>
</svg>